<svg width="30" height="30" viewBox="0 0 30 30" fill="none" xmlns="http://www.w3.org/2000/svg">
<rect width="30" height="30" fill="#F5F5F5"/>
<rect width="1440" height="2401" transform="translate(-909 -2219)" fill="#2D2E45"/>
<rect x="-909" y="-176" width="1440" height="345" fill="#212232"/>
<rect width="30" height="30" fill="#343652"/>
<g clip-path="url(#clip0_0_1)">
<path d="M18.8163 15.4858C18.484 14.958 17.8284 14.7907 17.2471 15.1193C15.3992 16.1646 13.5657 16.1456 11.7215 15.1098C11.1402 14.7838 10.4989 14.9631 10.163 15.5022C9.86023 15.9878 9.97936 16.6105 10.5356 16.9158C11.2566 17.3108 12.0278 17.6204 12.8519 18.0025C12.7112 18.1508 12.5858 18.2949 12.4479 18.4277C11.8451 19.0124 11.2253 19.5816 10.6395 20.1819C10.0824 20.752 10.2732 21.6593 10.9996 21.9215C11.5074 22.1044 11.9651 21.9672 12.344 21.5946C13.0427 20.909 13.7404 20.2233 14.4507 19.5265C14.5922 19.6351 14.6809 19.6912 14.7552 19.7619C15.4001 20.3794 16.0379 21.0039 16.6882 21.6171C17.1906 22.0906 17.9135 22.1173 18.3506 21.6947C18.8181 21.2436 18.7975 20.6218 18.2879 20.1112C17.9726 19.7947 17.6457 19.4902 17.3241 19.1797C16.9192 18.7882 16.5144 18.3958 16.1104 18.0042C16.9246 17.6368 17.6806 17.3418 18.3882 16.9632C19.0259 16.6208 19.1585 16.0292 18.8163 15.4858Z" fill="#5B61BF"/>
<path d="M14.5072 14.6448C16.6542 14.75 18.5056 12.9277 18.4662 10.8336C18.4259 8.69381 16.7133 6.98009 14.4875 6.99993C12.1479 7.02149 10.5339 8.86716 10.5231 10.8526C10.5133 12.8129 12.2644 14.7664 14.5072 14.6448ZM14.4893 9.14315C15.4056 9.13798 16.226 9.92713 16.2359 10.8224C16.2457 11.7538 15.428 12.5542 14.4803 12.5387C13.5398 12.524 12.7677 11.7573 12.7704 10.8405C12.7722 9.93231 13.5658 9.14833 14.4893 9.14315Z" fill="#5B61BF"/>
</g>
<defs>
<clipPath id="clip0_0_1">
<rect width="9" height="15" fill="white" transform="translate(10 7)"/>
</clipPath>
</defs>
</svg>
