<svg width="12" height="11" viewBox="0 0 12 11" fill="none" xmlns="http://www.w3.org/2000/svg">
<path d="M2.2403 8.47997L1.74552 9.51076C1.64926 9.70318 1.69058 9.9368 1.82797 10.1017C1.93793 10.2117 2.07531 10.2804 2.22649 10.2804C2.28143 10.2804 2.35017 10.2667 2.40519 10.2529L4.78288 9.40089C5.12648 9.45582 5.48379 9.48334 5.84119 9.48334C9.05727 9.48334 11.6824 7.353 11.6824 4.74167C11.6824 2.13032 9.05727 0 5.84119 0C2.6251 0 0 2.13034 0 4.74167C0 6.19851 0.838382 7.58667 2.24029 8.48003L2.2403 8.47997ZM5.84122 0.824577C8.60376 0.824577 10.8578 2.58381 10.8578 4.74161C10.8578 6.89936 8.60376 8.65864 5.84122 8.65864C5.49762 8.65864 5.16774 8.63112 4.83794 8.57619C4.75549 8.56248 4.65924 8.57619 4.57678 8.6037L2.79004 9.23598L3.0924 8.59001C3.21608 8.34267 3.11992 8.02648 2.87248 7.88909C1.58052 7.14697 0.824602 5.96499 0.824602 4.72798C0.824697 2.58385 3.07871 0.824692 5.84115 0.824692L5.84122 0.824577Z" fill="white"/>
</svg>
