<svg width="30" height="30" viewBox="0 0 30 30" fill="none" xmlns="http://www.w3.org/2000/svg">
<rect width="30" height="30" fill="#F5F5F5"/>
<rect width="1440" height="2401" transform="translate(-839 -2219)" fill="#2D2E45"/>
<rect x="-839" y="-176" width="1440" height="345" fill="#212232"/>
<rect width="30" height="30" fill="#343652"/>
<path d="M15.995 12.9328V11.8992C15.995 11.7445 16.0025 11.6227 16.0176 11.5383C16.0327 11.4539 16.0679 11.3695 16.1233 11.2875C16.1786 11.2055 16.2667 11.1469 16.3899 11.1164C16.5132 11.0859 16.6742 11.0695 16.878 11.0695H17.9874V9H16.2138C15.1874 9 14.4503 9.22734 14.0025 9.67969C13.5547 10.1344 13.3308 10.8023 13.3308 11.6859V12.9305H12V15H13.3283V21H15.9925V15H17.766L18 12.9328H15.995Z" fill="#5B61BF"/>
</svg>
