<svg width="76" height="23" viewBox="0 0 76 23" fill="none" xmlns="http://www.w3.org/2000/svg">
<path d="M72.0631 17.4675C72.0631 17.0398 72.2342 16.7295 72.4775 16.587C72.6757 16.4696 72.8018 16.327 72.8018 16.1174L72.8018 15.5052C72.8018 15.3626 72.6847 15.2536 72.5315 15.2536C71.5045 15.2536 71 16.1258 71 17.5681C71 19.1111 71.8468 20 73.5045 20C75.1532 20 76 19.1195 76 17.5262C76 16.0838 75.4955 15.2117 74.4685 15.2117C74.3153 15.2117 74.1982 15.3207 74.1982 15.4633L74.1982 16.0754C74.1982 16.2851 74.3243 16.4276 74.5225 16.545C74.7658 16.6876 74.9369 16.9979 74.9369 17.4256C74.9369 18.2641 74.4955 18.5409 73.5045 18.5409C72.5045 18.5409 72.0631 18.2641 72.0631 17.4675Z" fill="#9995B9"/>
<path d="M75 12.4855C75 13.1983 74.5586 13.5421 73.4955 13.5421C72.4324 13.5421 72 13.1983 72 12.4855C72 11.7727 72.4324 11.4289 73.4955 11.4289C74.5586 11.4289 75 11.7727 75 12.4855ZM71 12.4855C71 14.0704 71.8378 14.9593 73.4955 14.9593C75.1532 14.9593 76 14.0704 76 12.4855C76 10.9006 75.1532 10.0117 73.4955 10.0117C71.8378 10.0117 71 10.9006 71 12.4855Z" fill="#9995B9"/>
<path d="M75.6396 6.41932C75.7928 6.41932 75.9099 6.3103 75.9099 6.16775L75.9099 5.25369C75.9099 5.11113 75.7928 5.00212 75.6396 5.00212L73.1171 5.00212C72.991 5.00212 72.8649 5.0105 72.7387 5.02727C72.3063 4.73377 72.0631 4.40673 72.0631 4.12999C72.0631 3.67716 72.3694 3.4172 73.1171 3.4172L75.6396 3.4172C75.7928 3.4172 75.9099 3.30818 75.9099 3.16563L75.9099 2.25157C75.9099 2.10901 75.7928 2 75.6396 2L73.1171 2C71.6216 2 71 2.71279 71 3.73586C71 4.31448 71.3243 4.82602 71.8468 5.29562C71.2883 5.61428 71 6.06712 71 6.73798C71 7.32499 71.2973 7.67719 71.6396 8.00424L71.3604 8.00424C71.2072 8.00424 71.0901 8.11325 71.0901 8.25581L71.0901 9.16986C71.0901 9.31242 71.2072 9.42144 71.3604 9.42144L75.6396 9.42144C75.7928 9.42144 75.9099 9.31242 75.9099 9.16986L75.9099 8.25581C75.9099 8.11325 75.7928 8.00424 75.6396 8.00424L72.6937 8.00424C72.3063 7.74428 72.0631 7.48432 72.0631 7.13211C72.0631 6.67928 72.3694 6.41932 73.1171 6.41932L75.6396 6.41932Z" fill="#9995B9"/>
<path d="M35.7983 8.23524C35.7983 5.19178 30.4497 5.90789 30.4497 4.66962C30.4497 4.25189 30.8555 3.96843 31.8557 3.96843C32.479 3.96843 33.0153 4.14746 33.2617 4.46076C33.4501 4.69946 33.711 4.84865 34.0734 4.84865H35.1315C35.378 4.84865 35.5664 4.6547 35.5664 4.40108C35.5664 2.84951 34.0589 2.31243 31.6817 2.31243C29.6379 2.31243 28 2.98378 28 4.66962C28 7.68324 33.3487 6.99697 33.3487 8.23524C33.3487 8.65297 32.9428 8.93643 31.7252 8.93643C31.1019 8.93643 30.5656 8.75741 30.3192 8.44411C30.1308 8.20541 29.8699 8.05622 29.5075 8.05622H28.4493C28.2029 8.05622 28.0145 8.25016 28.0145 8.50378C28.0145 10.0554 29.522 10.5924 31.8992 10.5924C34.1604 10.5924 35.7983 9.92108 35.7983 8.23524Z" fill="#9995B9"/>
<path d="M42.2871 9.99568C42.2871 10.2493 42.4755 10.4432 42.7219 10.4432H44.3019C44.5483 10.4432 44.7368 10.2493 44.7368 9.99568V5.81838C44.7368 5.60951 44.7223 5.40065 44.6933 5.19178C45.2006 4.47568 45.7659 4.07287 46.2442 4.07287C47.027 4.07287 47.4763 4.58011 47.4763 5.81838V9.99568C47.4763 10.2493 47.6647 10.4432 47.9112 10.4432H49.4911C49.7375 10.4432 49.926 10.2493 49.926 9.99568V5.81838C49.926 3.34184 48.6939 2.31243 46.9255 2.31243C45.9253 2.31243 45.0412 2.84951 44.2294 3.71481C43.6786 2.78984 42.8959 2.31243 41.7363 2.31243C40.7216 2.31243 40.1128 2.80476 39.5475 3.37168V2.90919C39.5475 2.65557 39.3591 2.46162 39.1127 2.46162H37.5327C37.2863 2.46162 37.0979 2.65557 37.0979 2.90919V9.99568C37.0979 10.2493 37.2863 10.4432 37.5327 10.4432H39.1127C39.3591 10.4432 39.5475 10.2493 39.5475 9.99568V5.11719C39.9969 4.47568 40.4462 4.07287 41.055 4.07287C41.8378 4.07287 42.2871 4.58011 42.2871 5.81838V9.99568Z" fill="#9995B9"/>
<path d="M54.8236 8.93643C54.0698 8.93643 53.6785 8.54854 53.6785 8.02638C53.6785 7.53405 54.0698 7.14616 54.7511 7.14616H56.9254V8.28C56.418 8.60822 55.6933 8.93643 54.8236 8.93643ZM55.4759 3.96843C56.447 3.96843 56.9254 4.32649 56.9254 5.49016H54.5772C52.6783 5.49016 51.2288 6.34054 51.2288 8.02638C51.2288 9.71222 52.6783 10.5924 54.5772 10.5924C55.6933 10.5924 56.4905 10.2493 57.1428 9.77189V9.99568C57.1428 10.2493 57.3312 10.4432 57.5776 10.4432H58.9402C59.1866 10.4432 59.375 10.2493 59.375 9.99568V5.49016C59.375 3.20757 57.7371 2.31243 55.6498 2.31243C53.3016 2.31243 51.7941 2.84951 51.7941 4.40108C51.7941 4.6547 51.9826 4.84865 52.229 4.84865H53.2871C53.6495 4.84865 53.9104 4.69946 54.0988 4.46076C54.3452 4.14746 54.8816 3.96843 55.4759 3.96843Z" fill="#9995B9"/>
<path d="M63.1342 10.4432C63.3806 10.4432 63.5691 10.2493 63.5691 9.99568V0.447568C63.5691 0.193946 63.3806 0 63.1342 0H61.5542C61.3078 0 61.1194 0.193946 61.1194 0.447568V9.99568C61.1194 10.2493 61.3078 10.4432 61.5542 10.4432H63.1342Z" fill="#9995B9"/>
<path d="M67.3242 10.4432C67.5706 10.4432 67.759 10.2493 67.759 9.99568V0.447568C67.759 0.193946 67.5706 0 67.3242 0H65.7442C65.4978 0 65.3094 0.193946 65.3094 0.447568V9.99568C65.3094 10.2493 65.4978 10.4432 65.7442 10.4432H67.3242Z" fill="#9995B9"/>
<path d="M28 16.0478C28 18.3751 29.464 19.7775 31.5803 19.7775C32.4935 19.7775 33.1312 19.6283 33.6965 19.4791V19.8223C33.6965 20.9859 33.2182 21.344 32.1021 21.344C31.3628 21.344 30.8265 21.165 30.5801 20.8517C30.3917 20.613 30.1308 20.4638 29.7684 20.4638H28.7103C28.4638 20.4638 28.2754 20.6577 28.2754 20.9114C28.2754 22.4629 29.7829 23 32.276 23C34.5083 23 36.1462 22.1049 36.1462 19.8223V13.0789C35.3925 12.6314 33.7255 12.2584 32.3485 12.2584C29.522 12.2584 28 13.6608 28 16.0478ZM30.5221 16.0478C30.5221 14.7498 31.0005 14.0188 32.2036 14.0188C32.7978 14.0188 33.3632 14.0934 33.6965 14.1829V17.7933C33.1312 17.9425 32.5659 18.0171 32.1601 18.0171C31.0005 18.0171 30.5221 17.2861 30.5221 16.0478Z" fill="#9995B9"/>
<path d="M40.4707 18.8824C39.717 18.8824 39.3256 18.4945 39.3256 17.9723C39.3256 17.48 39.717 17.0921 40.3982 17.0921H42.5725V18.2259C42.0651 18.5542 41.3404 18.8824 40.4707 18.8824ZM41.123 13.9144C42.0941 13.9144 42.5725 14.2724 42.5725 15.4361H40.2243C38.3254 15.4361 36.8759 16.2865 36.8759 17.9723C36.8759 19.6582 38.3254 20.5384 40.2243 20.5384C41.3404 20.5384 42.1376 20.1952 42.7899 19.7178V19.9416C42.7899 20.1952 42.9783 20.3892 43.2247 20.3892H44.5873C44.8337 20.3892 45.0221 20.1952 45.0221 19.9416V15.4361C45.0221 13.1535 43.3842 12.2584 41.2969 12.2584C38.9487 12.2584 37.4412 12.7955 37.4412 14.347C37.4412 14.6006 37.6297 14.7946 37.8761 14.7946H38.9342C39.2966 14.7946 39.5575 14.6454 39.7459 14.4067C39.9924 14.0934 40.5287 13.9144 41.123 13.9144Z" fill="#9995B9"/>
<path d="M51.3759 19.9416C51.3759 20.1952 51.5644 20.3892 51.8108 20.3892H53.3907C53.6371 20.3892 53.8256 20.1952 53.8256 19.9416V15.7643C53.8256 15.5555 53.8111 15.3466 53.7821 15.1377C54.2894 14.4216 54.8547 14.0188 55.3331 14.0188C56.1158 14.0188 56.5651 14.5261 56.5651 15.7643V19.9416C56.5651 20.1952 56.7536 20.3892 57 20.3892H58.5799C58.8264 20.3892 59.0148 20.1952 59.0148 19.9416V15.7643C59.0148 13.2878 57.7827 12.2584 56.0143 12.2584C55.0142 12.2584 54.13 12.7955 53.3183 13.6608C52.7674 12.7358 51.9847 12.2584 50.8251 12.2584C49.8105 12.2584 49.2017 12.7507 48.6364 13.3176V12.8551C48.6364 12.6015 48.4479 12.4076 48.2015 12.4076H46.6216C46.3751 12.4076 46.1867 12.6015 46.1867 12.8551V19.9416C46.1867 20.1952 46.3751 20.3892 46.6216 20.3892H48.2015C48.4479 20.3892 48.6364 20.1952 48.6364 19.9416V15.0631C49.0857 14.4216 49.5351 14.0188 50.1438 14.0188C50.9266 14.0188 51.3759 14.5261 51.3759 15.7643V19.9416Z" fill="#9995B9"/>
<path d="M67.5652 17.1667C67.8116 17.1667 68 16.9728 68 16.7191V16.3014C68 13.6757 66.449 12.2584 63.8689 12.2584C61.3033 12.2584 59.7378 13.7204 59.7378 16.4058C59.7378 19.1062 61.2888 20.5384 63.8689 20.5384C66.1881 20.5384 67.7391 20.0013 67.7391 18.4497C67.7391 18.1961 67.5507 18.0022 67.3042 18.0022H66.2461C65.8837 18.0022 65.6228 18.1514 65.4344 18.3901C65.188 18.7034 64.6517 18.8824 64.0429 18.8824C62.8543 18.8824 62.3325 18.3602 62.231 17.1667H67.5652ZM63.8689 13.9144C64.9416 13.9144 65.4634 14.5111 65.5069 15.6301H62.2165C62.2745 14.5111 62.8253 13.9144 63.8689 13.9144Z" fill="#9995B9"/>
<path d="M10.9925 2.87676H2.30075C1.02256 2.87676 0 3.94718 0 5.28521V16.5915C0 17.9296 1.02256 19 2.30075 19C4.92105 19 7.34962 17.5282 8.69173 15.1197L17 0L10.9925 2.87676ZM7.54135 11.7746H5.81579V13.581H4.34586V11.7746H2.6203V10.2359H4.34586V8.42958H5.81579V10.2359H7.54135V11.7746Z" fill="#9995B9"/>
<path d="M21.7164 3C19.1157 3 16.6418 4.46154 15.3731 6.85315L7 22L13.153 19.0105H21.7164C22.9851 19.0105 24 17.9476 24 16.6189V5.39161C23.9366 4.06294 22.9216 3 21.7164 3ZM17.2127 11.8357C16.8321 11.8357 16.4515 11.5035 16.4515 11.0385C16.4515 10.6399 16.7687 10.2413 17.2127 10.2413C17.6567 10.2413 17.9739 10.5734 17.9739 11.0385C17.9739 11.5035 17.6567 11.8357 17.2127 11.8357ZM18.9254 13.6294C18.5448 13.6294 18.1642 13.2972 18.1642 12.8322C18.1642 12.4336 18.4813 12.035 18.9254 12.035C19.3694 12.035 19.6866 12.3671 19.6866 12.8322C19.6866 13.2972 19.3694 13.6294 18.9254 13.6294ZM18.9254 10.042C18.5448 10.042 18.1642 9.70979 18.1642 9.24475C18.1642 8.77972 18.4813 8.44755 18.9254 8.44755C19.3694 8.44755 19.6866 8.77972 19.6866 9.24475C19.6866 9.70979 19.3694 10.042 18.9254 10.042ZM20.6381 11.8357C20.2575 11.8357 19.8769 11.5035 19.8769 11.0385C19.8769 10.6399 20.194 10.2413 20.6381 10.2413C21.0187 10.2413 21.3993 10.5734 21.3993 11.0385C21.3993 11.5035 21.0821 11.8357 20.6381 11.8357Z" fill="#9995B9"/>
</svg>
