<svg width="30" height="30" viewBox="0 0 30 30" fill="none" xmlns="http://www.w3.org/2000/svg">
<rect width="30" height="30" fill="#F5F5F5"/>
<rect width="1440" height="2401" transform="translate(-874 -2219)" fill="#2D2E45"/>
<rect x="-874" y="-176" width="1440" height="345" fill="#212232"/>
<rect width="30" height="30" fill="#343652"/>
<path d="M15 17C16.1046 17 17 16.1046 17 15C17 13.8954 16.1046 13 15 13C13.8954 13 13 13.8954 13 15C13 16.1046 13.8954 17 15 17Z" fill="#5B61BF"/>
<path d="M18.2596 9H11.7404C10.2272 9 9 10.2272 9 11.7404V18.2596C9 19.7728 10.2272 21 11.7404 21H18.2596C19.7728 21 21 19.7728 21 18.2596V11.7404C21 10.2272 19.7728 9 18.2596 9ZM15 18.5289C13.0509 18.5289 11.4711 16.9491 11.4711 15C11.4711 13.0509 13.0509 11.4711 15 11.4711C16.9491 11.4711 18.5289 13.0509 18.5289 15C18.5289 16.9491 16.9491 18.5289 15 18.5289ZM18.6122 11.7765C18.3984 11.7765 18.2235 11.6016 18.2235 11.3878C18.2235 11.174 18.3984 10.9991 18.6122 10.9991C18.826 10.9991 19.0009 11.174 19.0009 11.3878C18.9981 11.6016 18.826 11.7765 18.6122 11.7765Z" fill="#5B61BF"/>
</svg>
