<svg width="121" height="36" viewBox="0 0 121 36" fill="none" xmlns="http://www.w3.org/2000/svg">
<path d="M114.701 28.0605C114.701 27.3953 114.975 26.9126 115.364 26.6909C115.681 26.5082 115.883 26.2865 115.883 25.9604L115.883 25.0081C115.883 24.7863 115.695 24.6168 115.45 24.6168C113.807 24.6168 113 25.9734 113 28.2171C113 30.6173 114.355 32 117.007 32C119.645 32 121 30.6303 121 28.1518C121 25.9082 120.193 24.5515 118.55 24.5515C118.305 24.5515 118.117 24.7211 118.117 24.9429L118.117 25.8951C118.117 26.2212 118.319 26.443 118.636 26.6256C119.025 26.8474 119.299 27.33 119.299 27.9953C119.299 29.2998 118.593 29.7302 117.007 29.7302C115.407 29.7302 114.701 29.2998 114.701 28.0605Z" fill="#715FF9"/>
<path d="M119.4 20.3108C119.4 21.4196 118.694 21.9544 116.993 21.9544C115.292 21.9544 114.6 21.4196 114.6 20.3108C114.6 19.202 115.292 18.6672 116.993 18.6672C118.694 18.6672 119.4 19.202 119.4 20.3108ZM113 20.3108C113 22.7763 114.341 24.159 116.993 24.159C119.645 24.159 121 22.7763 121 20.3108C121 17.8454 119.645 16.4627 116.993 16.4627C114.341 16.4627 113 17.8454 113 20.3108Z" fill="#715FF9"/>
<path d="M120.423 10.8745C120.668 10.8745 120.856 10.7049 120.856 10.4832L120.856 9.0613C120.856 8.83954 120.668 8.66996 120.423 8.66996L116.387 8.66996C116.186 8.66996 115.984 8.683 115.782 8.70909C115.09 8.25253 114.701 7.7438 114.701 7.31332C114.701 6.60892 115.191 6.20454 116.387 6.20454L120.423 6.20454C120.668 6.20454 120.856 6.03496 120.856 5.8132L120.856 4.39134C120.856 4.16958 120.668 4 120.423 4L116.387 4C113.995 4 113 5.10879 113 6.70023C113 7.60031 113.519 8.39603 114.355 9.12652C113.461 9.62222 113 10.3266 113 11.3702C113 12.2833 113.476 12.8312 114.023 13.3399L113.577 13.3399C113.332 13.3399 113.144 13.5095 113.144 13.7313L113.144 15.1531C113.144 15.3749 113.332 15.5445 113.577 15.5445L120.423 15.5445C120.668 15.5445 120.856 15.3749 120.856 15.1531L120.856 13.7313C120.856 13.5095 120.668 13.3399 120.423 13.3399L115.71 13.3399C115.09 12.9355 114.701 12.5312 114.701 11.9833C114.701 11.2789 115.191 10.8745 116.387 10.8745L120.423 10.8745Z" fill="#715FF9"/>
<path d="M57.4773 12.8899C57.4773 8.12627 48.9195 9.24714 48.9195 7.30897C48.9195 6.65514 49.5688 6.21146 51.1691 6.21146C52.1663 6.21146 53.0244 6.49168 53.4187 6.98205C53.7202 7.35568 54.1377 7.58919 54.7175 7.58919H56.4105C56.8047 7.58919 57.1062 7.28562 57.1062 6.88865C57.1062 4.46011 54.6943 3.61946 50.8908 3.61946C47.6207 3.61946 45 4.67027 45 7.30897C45 12.0259 53.5579 10.9518 53.5579 12.8899C53.5579 13.5438 52.9085 13.9875 50.9603 13.9875C49.9631 13.9875 49.105 13.7072 48.7107 13.2169C48.4092 12.8432 47.9918 12.6097 47.412 12.6097H45.719C45.3247 12.6097 45.0232 12.9133 45.0232 13.3103C45.0232 15.7388 47.4352 16.5795 51.2387 16.5795C54.8566 16.5795 57.4773 15.5287 57.4773 12.8899Z" fill="white"/>
<path d="M67.8594 15.6454C67.8594 16.0424 68.1609 16.3459 68.5551 16.3459H71.083C71.4773 16.3459 71.7788 16.0424 71.7788 15.6454V9.10703C71.7788 8.78011 71.7556 8.45319 71.7092 8.12627C72.521 7.00541 73.4254 6.37492 74.1908 6.37492C75.4432 6.37492 76.1621 7.16887 76.1621 9.10703V15.6454C76.1621 16.0424 76.4636 16.3459 76.8579 16.3459H79.3858C79.7801 16.3459 80.0816 16.0424 80.0816 15.6454V9.10703C80.0816 5.2307 78.1102 3.61946 75.2808 3.61946C73.6806 3.61946 72.2658 4.46011 70.9671 5.81449C70.0858 4.3667 68.8334 3.61946 66.9781 3.61946C65.3546 3.61946 64.3806 4.39005 63.4761 5.27741V4.55351C63.4761 4.15654 63.1746 3.85297 62.7803 3.85297H60.2524C59.8581 3.85297 59.5566 4.15654 59.5566 4.55351V15.6454C59.5566 16.0424 59.8581 16.3459 60.2524 16.3459H62.7803C63.1746 16.3459 63.4761 16.0424 63.4761 15.6454V8.00951C64.195 7.00541 64.914 6.37492 65.888 6.37492C67.1404 6.37492 67.8594 7.16887 67.8594 9.10703V15.6454Z" fill="white"/>
<path d="M87.9177 13.9875C86.7118 13.9875 86.0856 13.3803 86.0856 12.563C86.0856 11.7924 86.7118 11.1853 87.8018 11.1853H91.2806V12.96C90.4689 13.4737 89.3093 13.9875 87.9177 13.9875ZM88.9614 6.21146C90.5152 6.21146 91.2806 6.77189 91.2806 8.5933H87.5235C84.4853 8.5933 82.1661 9.92432 82.1661 12.563C82.1661 15.2017 84.4853 16.5795 87.5235 16.5795C89.3093 16.5795 90.5848 16.0424 91.6285 15.2951V15.6454C91.6285 16.0424 91.93 16.3459 92.3242 16.3459H94.5043C94.8985 16.3459 95.2 16.0424 95.2 15.6454V8.5933C95.2 5.02054 92.5793 3.61946 89.2397 3.61946C85.4826 3.61946 83.0706 4.46011 83.0706 6.88865C83.0706 7.28562 83.3721 7.58919 83.7664 7.58919H85.4594C86.0392 7.58919 86.4566 7.35568 86.7581 6.98205C87.1524 6.49168 88.0105 6.21146 88.9614 6.21146Z" fill="white"/>
<path d="M101.215 16.3459C101.609 16.3459 101.91 16.0424 101.91 15.6454V0.700541C101.91 0.303568 101.609 0 101.215 0H98.6868C98.2925 0 97.991 0.303568 97.991 0.700541V15.6454C97.991 16.0424 98.2925 16.3459 98.6868 16.3459H101.215Z" fill="white"/>
<path d="M107.919 16.3459C108.313 16.3459 108.614 16.0424 108.614 15.6454V0.700541C108.614 0.303568 108.313 0 107.919 0H105.391C104.996 0 104.695 0.303568 104.695 0.700541V15.6454C104.695 16.0424 104.996 16.3459 105.391 16.3459H107.919Z" fill="white"/>
<path d="M45 25.1183C45 28.7611 47.3424 30.9561 50.7284 30.9561C52.1895 30.9561 53.21 30.7226 54.1145 30.4891V31.0262C54.1145 32.8476 53.3491 33.408 51.5633 33.408C50.3805 33.408 49.5224 33.1278 49.1282 32.6374C48.8267 32.2638 48.4092 32.0303 47.8294 32.0303H46.1364C45.7421 32.0303 45.4406 32.3338 45.4406 32.7308C45.4406 35.1594 47.8526 36 51.8416 36C55.4132 36 58.0339 34.5989 58.0339 31.0262V20.4714C56.8279 19.7708 54.1608 19.187 51.9576 19.187C47.4352 19.187 45 21.3821 45 25.1183ZM49.0354 25.1183C49.0354 23.0867 49.8007 21.9425 51.7257 21.9425C52.6766 21.9425 53.581 22.0592 54.1145 22.1994V27.8504C53.21 28.0839 52.3055 28.2007 51.6561 28.2007C49.8007 28.2007 49.0354 27.0564 49.0354 25.1183Z" fill="white"/>
<path d="M64.9531 29.555C63.7471 29.555 63.1209 28.9479 63.1209 28.1306C63.1209 27.36 63.7471 26.7529 64.8371 26.7529H68.316V28.5276C67.5042 29.0413 66.3446 29.555 64.9531 29.555ZM65.9967 21.779C67.5506 21.779 68.316 22.3395 68.316 24.1609H64.5588C61.5207 24.1609 59.2015 25.4919 59.2015 28.1306C59.2015 30.7693 61.5207 32.147 64.5588 32.147C66.3446 32.147 67.6202 31.6099 68.6638 30.8627V31.213C68.6638 31.6099 68.9653 31.9135 69.3596 31.9135H71.5396C71.9339 31.9135 72.2354 31.6099 72.2354 31.213V24.1609C72.2354 20.5881 69.6147 19.187 66.2751 19.187C62.5179 19.187 60.106 20.0277 60.106 22.4562C60.106 22.8532 60.4075 23.1568 60.8017 23.1568H62.4948C63.0746 23.1568 63.492 22.9232 63.7935 22.5496C64.1878 22.0592 65.0459 21.779 65.9967 21.779Z" fill="white"/>
<path d="M82.4015 31.213C82.4015 31.6099 82.703 31.9135 83.0972 31.9135H85.6252C86.0194 31.9135 86.3209 31.6099 86.3209 31.213V24.6746C86.3209 24.3477 86.2977 24.0208 86.2514 23.6938C87.0631 22.573 87.9676 21.9425 88.7329 21.9425C89.9853 21.9425 90.7042 22.7364 90.7042 24.6746V31.213C90.7042 31.6099 91.0057 31.9135 91.4 31.9135H93.9279C94.3222 31.9135 94.6237 31.6099 94.6237 31.213V24.6746C94.6237 20.7983 92.6523 19.187 89.8229 19.187C88.2227 19.187 86.808 20.0277 85.5092 21.3821C84.6279 19.9343 83.3755 19.187 81.5202 19.187C79.8967 19.187 78.9227 19.9576 78.0182 20.845V20.1211C78.0182 19.7241 77.7167 19.4205 77.3224 19.4205H74.7945C74.4002 19.4205 74.0987 19.7241 74.0987 20.1211V31.213C74.0987 31.6099 74.4002 31.9135 74.7945 31.9135H77.3224C77.7167 31.9135 78.0182 31.6099 78.0182 31.213V23.5771C78.7371 22.573 79.4561 21.9425 80.4302 21.9425C81.6825 21.9425 82.4015 22.7364 82.4015 24.6746V31.213Z" fill="white"/>
<path d="M108.304 26.8696C108.699 26.8696 109 26.5661 109 26.1691V25.5152C109 21.4054 106.518 19.187 102.39 19.187C98.2853 19.187 95.7806 21.4755 95.7806 25.6787C95.7806 29.9053 98.2621 32.147 102.39 32.147C106.101 32.147 108.583 31.3064 108.583 28.8778C108.583 28.4809 108.281 28.1773 107.887 28.1773H106.194C105.614 28.1773 105.197 28.4108 104.895 28.7844C104.501 29.2748 103.643 29.555 102.669 29.555C100.767 29.555 99.9319 28.7377 99.7696 26.8696H108.304ZM102.39 21.779C104.106 21.779 104.941 22.7131 105.011 24.4644H99.7464C99.8392 22.7131 100.72 21.779 102.39 21.779Z" fill="white"/>
<path d="M18.7519 4.69366H3.92481C1.74436 4.69366 0 6.44014 0 8.62324V27.0704C0 29.2535 1.74436 31 3.92481 31C8.39474 31 12.5376 28.5986 14.8271 24.669L29 0L18.7519 4.69366ZM12.8647 19.2113H9.92105V22.1584H7.41353V19.2113H4.46992V16.7007H7.41353V13.7535H9.92105V16.7007H12.8647V19.2113Z" fill="#F7D823"/>
<path d="M37.1045 5C32.6679 5 28.4478 7.38462 26.2836 11.2867L12 36L22.4963 31.1224H37.1045C39.2687 31.1224 41 29.3881 41 27.2203V8.9021C40.8918 6.73427 39.1604 5 37.1045 5ZM29.4216 19.4161C28.7724 19.4161 28.1231 18.8741 28.1231 18.1154C28.1231 17.465 28.6642 16.8147 29.4216 16.8147C30.1791 16.8147 30.7201 17.3566 30.7201 18.1154C30.7201 18.8741 30.1791 19.4161 29.4216 19.4161ZM32.3433 22.3427C31.694 22.3427 31.0448 21.8007 31.0448 21.042C31.0448 20.3916 31.5858 19.7413 32.3433 19.7413C33.1007 19.7413 33.6418 20.2832 33.6418 21.042C33.6418 21.8007 33.1007 22.3427 32.3433 22.3427ZM32.3433 16.4895C31.694 16.4895 31.0448 15.9476 31.0448 15.1888C31.0448 14.4301 31.5858 13.8881 32.3433 13.8881C33.1007 13.8881 33.6418 14.4301 33.6418 15.1888C33.6418 15.9476 33.1007 16.4895 32.3433 16.4895ZM35.2649 19.4161C34.6157 19.4161 33.9664 18.8741 33.9664 18.1154C33.9664 17.465 34.5075 16.8147 35.2649 16.8147C35.9142 16.8147 36.5634 17.3566 36.5634 18.1154C36.5634 18.8741 36.0224 19.4161 35.2649 19.4161Z" fill="#5C4BE3"/>
</svg>
