<svg width="22" height="22" viewBox="0 0 22 22" fill="none" xmlns="http://www.w3.org/2000/svg" clacc="search">
<path d="M9.16087 18.306C11.2234 18.3072 13.2255 17.6086 14.8393 16.3238L20.3839 21.8687L21.8764 20.3761L16.3318 14.8313C18.0589 12.648 18.6984 9.79719 18.0697 7.08571C17.4408 4.37366 15.6121 2.09532 13.1005 0.894982C10.5886 -0.305608 7.66708 -0.298001 5.16192 0.916101C2.65664 2.12995 0.840227 4.41785 0.225787 7.1331C-0.388614 9.84829 0.26606 12.6956 2.00467 14.8699C3.74351 17.0441 6.37697 18.3087 9.16119 18.3065L9.16087 18.306ZM9.16087 2.11204C11.0281 2.11204 12.819 2.85391 14.1394 4.17432C15.4599 5.49473 16.2017 7.28562 16.2017 9.15289C16.2017 11.0202 15.4599 12.811 14.1394 14.1315C12.819 15.4519 11.0281 16.1937 9.16087 16.1937C7.29335 16.1937 5.50246 15.4519 4.18205 14.1315C2.86164 12.811 2.12003 11.0202 2.12003 9.15289C2.12003 7.28562 2.86164 5.49473 4.18205 4.17432C5.50246 2.85391 7.29335 2.11204 9.16087 2.11204Z" fill="#F4E240"/>
</svg>
